<svg xmlns="http://www.w3.org/2000/svg" width="44" height="44" viewBox="0 0 44.079582 44.079582" version="1.1" id="svg5870">
  <g
     id="layer1"
     transform="translate(-82.281595,-124.52568)">
    <g
       style="stroke:#3b547c;stroke-opacity:1"
       transform="matrix(0.26458333,0,0,0.26458333,69.475762,109.81485)"
       id="g2915"
       >
      <g
         style="stroke:#3b547c;stroke-opacity:1"
         id="g2903">
        <path
           id="path2897"
           d="m 212.3,149.9 c -35.8,19.1 -58.2,-11 -80.6,-11 -22.4,0 -44.7,30.1 -80.6,11 1.2,8.7 3.8,17.2 7.7,25.1 38.7,13.5 55.8,-8.4 72.9,-8.4 17.1,0 34.1,22 72.9,8.4 3.9,-7.9 6.5,-16.3 7.7,-25.1 z"
           class="st8"
           
           style="fill:#dce1f9;stroke:#3b547c;stroke-opacity:1" />
        <path
           id="path2899"
           d="m 204.6,175 c -38.7,13.5 -55.8,-8.4 -72.9,-8.4 -17.1,0 -34.1,22 -72.9,8.4 4.4,8.9 10.4,16.9 17.7,23.6 31.1,6.8 43.1,-6.5 55.2,-6.5 12.1,0 24.1,13.3 55.2,6.5 7.3,-6.7 13.3,-14.7 17.7,-23.6 z"
           class="st8"
           
           style="fill:#dce1f9;stroke:#3b547c;stroke-opacity:1" />
        <path
           id="path2901"
           d="m 76.5,198.7 c 31.1,6.8 43.1,-6.5 55.2,-6.5 12.1,0 24.1,13.3 55.2,6.5 -15,13.9 -34.7,21.6 -55.2,21.6 -20.4,-0.1 -40.2,-7.8 -55.2,-21.6 z"
           class="st8"
           
           style="fill:#dce1f9;stroke:#3b547c;stroke-opacity:1" />
      </g>
      <g
         style="stroke:#3b547c;stroke-opacity:1"
         id="g2913">
        <path
           id="path2905"
           d="m 58.8,175 c 38.7,13.5 55.8,-8.4 72.9,-8.4 17.1,0 34.1,22 72.9,8.4"
           class="st9"
           
           style="fill:none;stroke:#3b547c;stroke-width:4;stroke-linecap:round;stroke-linejoin:round;stroke-opacity:1" />
        <path
           id="path2907"
           d="m 51.1,149.9 c 35.8,19.1 58.2,-11 80.6,-11 22.4,0 44.7,30.1 80.6,11"
           class="st9"
           
           style="fill:none;stroke:#3b547c;stroke-width:4;stroke-linecap:round;stroke-linejoin:round;stroke-opacity:1" />
        <path
           id="path2909"
           d="m 76.5,198.7 c 31.1,6.8 43.1,-6.5 55.2,-6.5 12.1,0 24.1,13.3 55.2,6.5"
           class="st9"
           
           style="fill:none;stroke:#3b547c;stroke-width:4;stroke-linecap:round;stroke-linejoin:round;stroke-opacity:1" />
        <path
           id="path2911"
           d="m 131.7,220.2 c 10.3,0 20.4,-1.9 29.9,-5.7 10.3,-4.1 19.7,-10.2 27.6,-18.1 7.9,-7.9 14,-17.2 18.1,-27.6 3.8,-9.5 5.7,-19.7 5.7,-29.9 0,-10.3 -1.9,-20.4 -5.7,-29.9 -4.1,-10.3 -10.2,-19.7 -18.1,-27.6 -7.9,-7.9 -17.2,-14 -27.6,-18.1 -9.5,-3.8 -19.7,-5.7 -29.9,-5.7 -10.3,0 -20.4,1.9 -29.9,5.7 -10.3,4.1 -19.7,10.2 -27.6,18.1 -7.9,7.9 -14,17.2 -18.1,27.6 -3.8,9.5 -5.7,19.7 -5.7,29.9 0,10.3 1.9,20.4 5.7,29.9 4.1,10.3 10.2,19.7 18.1,27.6 7.9,7.9 17.2,14 27.6,18.1 9.5,3.8 19.6,5.7 29.9,5.7 z"
           class="st9"
           
           style="fill:none;stroke:#3b547c;stroke-width:4;stroke-linecap:round;stroke-linejoin:round;stroke-opacity:1" />
      </g>
    </g>
    <g
       id="g3308"
       transform="matrix(0.26458333,0,0,0.26458333,69.475762,109.81485)"
       style="stroke:#3b547c;stroke-opacity:1">
      <g
         id="g3296"
         style="stroke:#3b547c;stroke-opacity:1">
        <path
           style="fill:#dce1f9;stroke:#3b547c;stroke-opacity:1"
           
           class="st8"
           d="m 212.3,149.9 c -35.8,19.1 -58.2,-11 -80.6,-11 -22.4,0 -44.7,30.1 -80.6,11 1.2,8.7 3.8,17.2 7.7,25.1 38.7,13.5 55.8,-8.4 72.9,-8.4 17.1,0 34.1,22 72.9,8.4 3.9,-7.9 6.5,-16.3 7.7,-25.1 z"
           id="path3290" />
        <path
           style="fill:#dce1f9;stroke:#3b547c;stroke-opacity:1"
           
           class="st8"
           d="m 204.6,175 c -38.7,13.5 -55.8,-8.4 -72.9,-8.4 -17.1,0 -34.1,22 -72.9,8.4 4.4,8.9 10.4,16.9 17.7,23.6 31.1,6.8 43.1,-6.5 55.2,-6.5 12.1,0 24.1,13.3 55.2,6.5 7.3,-6.7 13.3,-14.7 17.7,-23.6 z"
           id="path3292" />
        <path
           style="fill:#dce1f9;stroke:#3b547c;stroke-opacity:1"
           
           class="st8"
           d="m 76.5,198.7 c 31.1,6.8 43.1,-6.5 55.2,-6.5 12.1,0 24.1,13.3 55.2,6.5 -15,13.9 -34.7,21.6 -55.2,21.6 -20.4,-0.1 -40.2,-7.8 -55.2,-21.6 z"
           id="path3294" />
      </g>
      <g
         id="g3306"
         style="stroke:#3b547c;stroke-opacity:1">
        <path
           style="fill:none;stroke:#3b547c;stroke-width:4;stroke-linecap:round;stroke-linejoin:round;stroke-opacity:1"
           
           class="st9"
           d="m 58.8,175 c 38.7,13.5 55.8,-8.4 72.9,-8.4 17.1,0 34.1,22 72.9,8.4"
           id="path3298" />
        <path
           style="fill:none;stroke:#3b547c;stroke-width:4;stroke-linecap:round;stroke-linejoin:round;stroke-opacity:1"
           
           class="st9"
           d="m 51.1,149.9 c 35.8,19.1 58.2,-11 80.6,-11 22.4,0 44.7,30.1 80.6,11"
           id="path3300" />
        <path
           style="fill:none;stroke:#3b547c;stroke-width:4;stroke-linecap:round;stroke-linejoin:round;stroke-opacity:1"
           
           class="st9"
           d="m 76.5,198.7 c 31.1,6.8 43.1,-6.5 55.2,-6.5 12.1,0 24.1,13.3 55.2,6.5"
           id="path3302" />
        <path
           style="fill:none;stroke:#3b547c;stroke-width:4;stroke-linecap:round;stroke-linejoin:round;stroke-opacity:1"
           
           class="st9"
           d="m 131.7,220.2 c 10.3,0 20.4,-1.9 29.9,-5.7 10.3,-4.1 19.7,-10.2 27.6,-18.1 7.9,-7.9 14,-17.2 18.1,-27.6 3.8,-9.5 5.7,-19.7 5.7,-29.9 0,-10.3 -1.9,-20.4 -5.7,-29.9 -4.1,-10.3 -10.2,-19.7 -18.1,-27.6 -7.9,-7.9 -17.2,-14 -27.6,-18.1 -9.5,-3.8 -19.7,-5.7 -29.9,-5.7 -10.3,0 -20.4,1.9 -29.9,5.7 -10.3,4.1 -19.7,10.2 -27.6,18.1 -7.9,7.9 -14,17.2 -18.1,27.6 -3.8,9.5 -5.7,19.7 -5.7,29.9 0,10.3 1.9,20.4 5.7,29.9 4.1,10.3 10.2,19.7 18.1,27.6 7.9,7.9 17.2,14 27.6,18.1 9.5,3.8 19.6,5.7 29.9,5.7 z"
           id="path3304" />
      </g>
    </g>
  </g>
</svg>
