<?xml version="1.0" encoding="UTF-8" standalone="no"?>
<svg
   width="542.50598pt"
   height="542.50598pt"
   version="1.1"
   viewBox="0 0 542.50598 542.50598"
   id="svg4"
   sodipodi:docname="stop.svg"
   inkscape:version="1.1.2 (0a00cf5339, 2022-02-04)"
   xmlns:inkscape="http://www.inkscape.org/namespaces/inkscape"
   xmlns:sodipodi="http://sodipodi.sourceforge.net/DTD/sodipodi-0.dtd"
   xmlns="http://www.w3.org/2000/svg"
   xmlns:svg="http://www.w3.org/2000/svg">
  <defs
     id="defs8" />
  <sodipodi:namedview
     id="namedview6"
     pagecolor="#ffffff"
     bordercolor="#666666"
     borderopacity="1.0"
     inkscape:pageshadow="2"
     inkscape:pageopacity="0.0"
     inkscape:pagecheckerboard="0"
     inkscape:document-units="pt"
     showgrid="false"
     fit-margin-top="0"
     fit-margin-left="0"
     fit-margin-right="0"
     fit-margin-bottom="0"
     inkscape:zoom="0.675"
     inkscape:cx="360.74074"
     inkscape:cy="499.25926"
     inkscape:window-width="1864"
     inkscape:window-height="1024"
     inkscape:window-x="56"
     inkscape:window-y="27"
     inkscape:window-maximized="1"
     inkscape:current-layer="svg4" />
  <path
     d="M 395.943,542.506 H 146.563 C 107.704,542.46303 70.45,527.01 42.973,499.533 15.496,472.056 0.043,434.803 0,395.943 V 146.563 C 0.042969,107.704 15.496,70.45 42.973,42.973 70.45,15.496 107.703,0.043 146.563,0 h 249.38 c 38.859,0.042969 76.113,15.496 103.59,42.973 27.477,27.477 42.93,64.73 42.973,103.59 v 249.38 c -0.043,38.859 -15.496,76.113 -42.973,103.59 -27.477,27.477 -64.73,42.93 -103.59,42.973 z m -249.38,-490 c -24.938,0.02734 -48.848,9.9453 -66.48,27.582 -17.637,17.633 -27.555,41.543 -27.582,66.48 v 249.38 c 0.0273,24.938 9.9453,48.848 27.582,66.48 17.633,17.637 41.543,27.555 66.48,27.582 h 249.38 c 24.938,-0.0273 48.848,-9.9453 66.48,-27.582 17.637,-17.633 27.555,-41.543 27.582,-66.48 V 146.568 C 489.97766,121.63 480.0597,97.72 462.423,80.088 444.79,62.451 420.88,52.533 395.943,52.506 Z"
     id="path2" />
</svg>
