<?xml version="1.0" encoding="UTF-8" standalone="no"?>
<!-- Created with Inkscape (http://www.inkscape.org/) -->

<svg
   width="133.526mm"
   height="133.526mm"
   viewBox="0 0 133.526 133.526"
   version="1.1"
   id="svg1"
   inkscape:version="1.3.2 (091e20ef0f, 2023-11-25, custom)"
   sodipodi:docname="icon.svg"
   inkscape:export-filename="icon.png"
   inkscape:export-xdpi="90"
   inkscape:export-ydpi="90"
   xmlns:inkscape="http://www.inkscape.org/namespaces/inkscape"
   xmlns:sodipodi="http://sodipodi.sourceforge.net/DTD/sodipodi-0.dtd"
   xmlns="http://www.w3.org/2000/svg"
   xmlns:svg="http://www.w3.org/2000/svg"
   xmlns:rdf="http://www.w3.org/1999/02/22-rdf-syntax-ns#"
   xmlns:cc="http://creativecommons.org/ns#"
   xmlns:dc="http://purl.org/dc/elements/1.1/">
  <title
     id="title1">Bicycle Repair Icon</title>
  <sodipodi:namedview
     id="namedview1"
     pagecolor="#ffffff"
     bordercolor="#666666"
     borderopacity="1.0"
     inkscape:showpageshadow="2"
     inkscape:pageopacity="0.0"
     inkscape:pagecheckerboard="0"
     inkscape:deskcolor="#d1d1d1"
     inkscape:document-units="mm"
     inkscape:zoom="0.75343254"
     inkscape:cx="441.97719"
     inkscape:cy="242.88837"
     inkscape:window-width="1916"
     inkscape:window-height="1522"
     inkscape:window-x="1920"
     inkscape:window-y="27"
     inkscape:window-maximized="1"
     inkscape:current-layer="g1"
     showgrid="false" />
  <defs
     id="defs1">
    <clipPath
       clipPathUnits="userSpaceOnUse"
       id="clipPath1809">
      <path
         d="M 5176,0 V 297 H 7200 V 0 Z"
         id="path1807" />
    </clipPath>
    <linearGradient
       id="SVGID_right_"
       y2="1.279e-13"
       gradientUnits="userSpaceOnUse"
       x2="-1073.2"
       gradientTransform="matrix(22.481464,0,0,-22.481464,28272.327,4123.5846)"
       y1="126.85"
       x1="-1073.2">
      <stop
         stop-color="#1b3967"
         offset=".011"
         id="stop1" />
      <stop
         stop-color="#13b5ea"
         offset=".467"
         id="stop2" />
      <stop
         stop-color="#002b5c"
         offset=".9945"
         id="stop3" />
    </linearGradient>
    <linearGradient
       id="SVGID_left_"
       y2="1.279e-13"
       gradientUnits="userSpaceOnUse"
       x2="-1073.2"
       gradientTransform="matrix(-22.481464,0,0,-22.481464,-20993.375,4123.6071)"
       y1="126.85"
       x1="-1073.2">
      <stop
         stop-color="#1b3967"
         offset=".011"
         id="stop4" />
      <stop
         stop-color="#13b5ea"
         offset=".467"
         id="stop5" />
      <stop
         stop-color="#002b5c"
         offset=".9945"
         id="stop6" />
    </linearGradient>
  </defs>
  <g
     inkscape:label="Layer 1"
     inkscape:groupmode="layer"
     id="layer1"
     transform="translate(12.146863,-86.544447)">
    <g
       id="g1803"
       transform="matrix(0.03527778,0,0,-0.03527778,7.14375,353.78319)">
      <g
         id="g1805"
         clip-path="url(#clipPath1809)" />
    </g>
    <g
       id="g1"
       transform="translate(0.314744,-33.68066)">
      <g
         id="g4"
         transform="matrix(0.03123683,0,0,-0.03123683,-59.384346,271.12606)">
        <path
           d="m 4783.7179,3804.5953 c 1.7311,-29.5182 -40.1744,-21.762 -40.1744,-51.55 0,-866.6829 -1046.6919,-2188.9308 -2061.28,-2444.4102 v -36.8471 c 1347.8311,124.0977 2890.2166,1524.2439 2924.1636,2851.7743 L 4783.628,3804.5728 Z"
           style="fill:url(#SVGID_right_);stroke-width:22.4815"
           id="path6" />
        <path
           d="m 4376.084,3697.9657 c 1.7086,-29.5181 2.6978,-59.1262 2.6978,-88.9591 0,-866.6832 -690.1579,-2034.5057 -1704.7016,-2289.9625 v -36.8472 c 1327.3958,62.7233 2378.7636,1416.8721 2378.7636,2454.9765 0,53.3935 -2.8776,106.3148 -8.3406,158.6292 l -668.3739,-197.7919 z"
           style="fill:#e96d1f;stroke-width:22.4815"
           id="path7" />
        <path
           d="m 5050.9326,3908.1449 -171.241,-61.1945 c 0.9217,-21.6272 1.4838,-50.6732 1.4838,-72.5027 0,-926.6635 -837.9067,-2207.7703 -1962.0022,-2408.215 -72.9526,-24.4599 -169.4655,-46.694 -245.7674,-65.8932 v -36.8247 c 1467.0053,124.997 2497.6905,1615.6535 2377.6392,2644.7201 z"
           style="fill:#d9541e;stroke-width:22.4815"
           id="path8" />
        <path
           d="m 2495.2372,3804.6178 c -1.7311,-29.5182 40.1743,-21.7621 40.1743,-51.55 0,-866.6829 1046.6922,-2188.9308 2061.2804,-2444.4102 v -36.8471 c -1347.8311,124.0977 -2890.217,1524.2439 -2924.164,2851.7743 l 822.7992,-318.9895 z"
           style="fill:url(#SVGID_left_);stroke-width:22.4815"
           id="path9" />
        <path
           d="m 2902.8711,3697.9882 c -1.7086,-29.5182 -2.6978,-59.1262 -2.6978,-88.9591 0,-866.6833 690.1583,-2034.5057 1704.7019,-2289.9626 v -36.8471 c -1327.3955,62.7233 -2378.7637,1416.8721 -2378.7637,2454.9765 0,53.3935 2.8777,106.3148 8.3406,158.6292 l 668.374,-197.7919 z"
           style="fill:#a0ce67;stroke-width:22.4815"
           id="path10" />
        <path
           d="m 2228.0224,3908.1674 171.2414,-61.1945 c -0.9218,-21.6272 -1.4838,-50.6733 -1.4838,-72.5028 0,-926.6634 837.9067,-2207.7702 1962.0023,-2408.215 72.9523,-24.4598 169.4652,-46.694 245.7673,-65.8931 v -36.8247 C 3138.5443,1388.5343 2107.859,2879.1908 2227.91,3908.2573 Z"
           style="fill:#439639;stroke-width:22.4815"
           id="path11" />
      </g>
    </g>
  </g>
  <metadata
     id="metadata1">
    <rdf:RDF>
      <cc:Work
         rdf:about="">
        <dc:title>Bicycle Repair Icon</dc:title>
        <dc:date>2024-05-29</dc:date>
        <dc:creator>
          <cc:Agent>
            <dc:title>Sam Whited</dc:title>
          </cc:Agent>
        </dc:creator>
        <dc:description>Three stacked gears like a styleized cassette with a circle like a lock ring in the middle.</dc:description>
      </cc:Work>
    </rdf:RDF>
  </metadata>
</svg>
