<?xml version="1.0" encoding="UTF-8" standalone="no"?>
<!-- Created with Inkscape (http://www.inkscape.org/) -->

<svg
   version="1.1"
   id="svg1791"
   width="960"
   height="783.1333"
   viewBox="0 0 960 783.1333"
   sodipodi:docname="logo.svg"
   inkscape:version="1.3.2 (091e20ef0f, 2023-11-25, custom)"
   xmlns:inkscape="http://www.inkscape.org/namespaces/inkscape"
   xmlns:sodipodi="http://sodipodi.sourceforge.net/DTD/sodipodi-0.dtd"
   xmlns="http://www.w3.org/2000/svg"
   xmlns:svg="http://www.w3.org/2000/svg">
  <defs
     id="defs1795">
    <rect
       x="72.818378"
       y="603.90074"
       width="887.40438"
       height="188.00162"
       id="rect4" />
    <clipPath
       clipPathUnits="userSpaceOnUse"
       id="clipPath1809">
      <path
         d="M 5176,0 V 297 H 7200 V 0 Z"
         id="path1807" />
    </clipPath>
    <linearGradient
       id="SVGID_left_"
       y2="1.279e-13"
       gradientUnits="userSpaceOnUse"
       x2="-1073.2"
       gradientTransform="matrix(-22.481464,0,0,-22.481464,-20993.375,4123.6071)"
       y1="126.85"
       x1="-1073.2">
	<stop
   stop-color="#1b3967"
   offset=".011"
   id="stop4" />

	<stop
   stop-color="#13b5ea"
   offset=".467"
   id="stop5" />

	<stop
   stop-color="#002b5c"
   offset=".9945"
   id="stop6" />

</linearGradient>
    <linearGradient
       id="SVGID_right_"
       y2="1.279e-13"
       gradientUnits="userSpaceOnUse"
       x2="-1073.2"
       gradientTransform="matrix(22.481464,0,0,-22.481464,28272.327,4123.5846)"
       y1="126.85"
       x1="-1073.2">
	<stop
   stop-color="#1b3967"
   offset=".011"
   id="stop1" />

	<stop
   stop-color="#13b5ea"
   offset=".467"
   id="stop2" />

	<stop
   stop-color="#002b5c"
   offset=".9945"
   id="stop3" />

</linearGradient>
    <rect
       x="72.818375"
       y="603.90076"
       width="887.40436"
       height="188.00162"
       id="rect4-0" />
  </defs>
  <sodipodi:namedview
     id="namedview1793"
     pagecolor="#ffffff"
     bordercolor="#666666"
     borderopacity="1.0"
     inkscape:showpageshadow="2"
     inkscape:pageopacity="0.0"
     inkscape:pagecheckerboard="0"
     inkscape:deskcolor="#d1d1d1"
     showgrid="false"
     inkscape:zoom="0.82489149"
     inkscape:cx="495.21665"
     inkscape:cy="292.15964"
     inkscape:window-width="3836"
     inkscape:window-height="1522"
     inkscape:window-x="0"
     inkscape:window-y="27"
     inkscape:window-maximized="1"
     inkscape:current-layer="g1801">
    <inkscape:page
       x="0"
       y="0"
       id="page1797"
       width="960"
       height="783.1333"
       margin="0"
       bleed="0" />
  </sodipodi:namedview>
  <g
     id="g1799"
     inkscape:groupmode="layer"
     inkscape:label="Page 1"
     transform="matrix(1.3333333,0,0,-1.3333333,0,783.13333)">
    <g
       id="g1801"
       transform="scale(0.1)">
      <g
         id="g1803">
        <g
           id="g1805"
           clip-path="url(#clipPath1809)" />
      </g>
      <g
         id="g2"
         style="display:none"
         inkscape:label="The Old">
        <path
           d="m 3403.67,5271 0.02,-97.89 -8.77,-1.06 -100.35,-12.18 -0.76,-694.11 -97.42,-11.83 1.73,694.23 -22.41,-2.72 -96.45,-11.71 -0.02,97.87 62.35,7.57 56.51,6.87 57.48,6.98 38.98,4.72 109.11,13.26"
           style="fill:#231f20;fill-opacity:1;fill-rule:nonzero;stroke:none"
           id="path1819" />
        <path
           d="m 3812.86,5320.67 -0.65,-149.35 -1.06,-642.75 -96.45,-11.71 -0.02,97.87 -0.25,99.83 -130.56,-15.85 0.26,-99.83 0.02,-97.87 -97.43,-11.83 0.71,197.82 -35.08,-4.26 -0.02,97.86 35.07,4.26 0.38,347.06 0.65,149.36 96.45,11.72 0.1,-8.9 0.23,-140.35 -0.48,-134.5 0.1,-212.55 130.55,15.85 -0.1,212.54 0.48,134.51 -0.24,140.35 -0.08,8.89 97.42,11.83"
           style="fill:#231f20;fill-opacity:1;fill-rule:nonzero;stroke:none"
           id="path1821" />
        <path
           d="m 4234.71,5371.88 0.01,-97.87 -8.76,-1.06 -139.32,-16.91 -28.25,-3.45 c -14.3,-1.72 -26.38,-8.13 -36.23,-19.21 -9.87,-11.09 -14.89,-23.91 -15.11,-38.41 l -0.48,-134.51 0.55,-53.33 79.89,9.69 54.56,6.64 8.76,1.06 0.14,-98.86 -8.76,-1.06 -54.57,-6.62 -80.86,-9.82 0.29,-157.15 0.1,-41.51 -0.15,-6.93 c 0.27,-13.16 4.22,-23.89 11.82,-32.18 7.59,-8.33 17.4,-13.06 29.41,-14.23 l 89.63,10.88 96.45,11.71 0.02,-97.88 0.12,-0.97 -97.43,-11.83 -79.89,-9.69 c -2.6,-0.33 -5.03,-0.62 -7.3,-0.89 -2.28,-0.29 -5.08,-0.29 -8.4,-0.04 -11.13,-0.7 -22.8,0.53 -35.05,3.65 -28.54,7.08 -51.8,22.22 -69.77,45.43 -17.98,23.17 -26.98,51.24 -27.03,84.21 l 0.16,47.47 0.68,51.48 -0.69,46.39 0.58,60.37 -35.07,-4.25 -0.02,97.87 35.07,4.25 0.79,188.94 c 0.04,32.28 9.08,62.22 27.16,89.79 18.07,27.56 41.09,48.33 69.06,62.27 15.52,7.81 32.7,12.86 51.55,15.16 l 29.22,3.54 147.12,17.86"
           style="fill:#231f20;fill-opacity:1;fill-rule:nonzero;stroke:none"
           id="path1823" />
      </g>
      <g
         id="g1"
         inkscape:label="Shed Old"
         style="display:none">
        <path
           d="m 3854.66,1112.43 0.8,-147.711 -1.92,-19.508 c -3.25,-67.531 -23.97,-128.949 -62.24,-184.262 -38.27,-55.367 -87,-98.058 -146.18,-128.07 -16.2,-7.699 -32.89,-14.379 -50.05,-20.008 -17.18,-5.672 -34.92,-9.59 -53.18,-11.812 l -2.12,-0.246 -6.33,-0.774 -173.09,-21.019 -208.99,-25.368 -0.04,212.059 211.1,25.629 175.2,21.269 c 29.39,4.981 54.74,19.493 76.12,43.512 21.35,24.008 31.63,50.969 30.88,80.859 l -0.13,336.28 c 0.64,30.07 -9.54,54.88 -30.46,74.48 -20.96,19.59 -46.92,27.52 -77.85,23.76 l -63.33,-7.68 -6.33,-0.78 -2.11,-0.25 c -42.4,-3.74 -81.82,0.41 -118.25,12.42 -36.47,11.98 -68.62,29.85 -96.48,53.61 -27.88,23.73 -50.36,53.12 -67.47,88.21 -17.11,35.03 -26.75,73.12 -28.88,114.31 l -0.19,19.23 0.52,295.68 c 0.08,69.97 19.68,134.82 58.85,194.57 39.14,59.72 89.72,104.77 151.74,135.16 33.62,16.94 70.16,27.81 109.57,32.59 l 173.1,21.02 208.97,25.37 0.04,-212.06 -208.98,-25.37 -173.09,-21.02 c -30.97,-3.76 -57.13,-17.64 -78.48,-41.66 -21.38,-24.02 -32.27,-51.78 -32.74,-83.23 l -0.52,-295.67 c 0.92,-31.3 11.84,-56.39 32.71,-75.28 20.84,-18.89 46.15,-27.26 75.87,-25.07 l 65.44,7.95 -0.26,2.12 2.37,-1.86 c 37.99,4.62 73.92,2.56 107.85,-6.19 61.84,-15.34 112.21,-48.15 151.17,-98.38 38.94,-50.27 58.39,-110.39 58.32,-180.36 l -1.33,-147.94 0.4,-38.51"
           style="fill:#231f20;fill-opacity:1;fill-rule:nonzero;stroke:none"
           id="path1825" />
        <path
           d="m 4784.68,2467.71 -1.4,-323.62 -2.3,-1392.598 -208.98,-25.371 -0.04,212.059 -0.55,216.28 -282.87,-34.34 0.55,-216.268 0.05,-212.063 -211.1,-25.629 1.53,428.59 -76,-9.22 -0.04,212.05 75.99,9.22 0.82,751.95 1.41,323.63 208.98,25.37 0.19,-19.27 0.51,-304.11 -1.03,-291.43 0.22,-460.51 282.85,34.34 -0.21,460.51 1.03,291.44 -0.5,304.11 -0.2,19.26 211.09,25.62"
           style="fill:#231f20;fill-opacity:1;fill-rule:nonzero;stroke:none"
           id="path1827" />
        <path
           d="m 5698.69,2578.68 0.04,-212.06 -19,-2.31 -301.86,-36.65 -61.22,-7.43 c -30.97,-3.76 -57.14,-17.64 -78.48,-41.65 -21.39,-24.03 -32.27,-51.79 -32.74,-83.24 l -1.03,-291.44 1.17,-115.52 173.1,21.01 118.21,14.36 19,2.3 0.29,-214.17 -18.99,-2.3 -118.21,-14.36 -175.21,-21.27 0.64,-340.5 0.21,-89.95 -0.32,-15.03 c 0.58,-28.5 9.13,-51.73 25.6,-69.71 16.45,-18.02 37.7,-28.29 63.72,-30.82 l 194.2,23.57 208.99,25.37 0.04,-212.06 0.26,-2.109 L 5486,837.09 5312.91,816.07 c -5.65,-0.679 -10.92,-1.328 -15.83,-1.918 -4.95,-0.601 -11.01,-0.64 -18.2,-0.07 -24.12,-1.512 -49.41,1.129 -75.93,7.93 -61.84,15.308 -112.25,48.109 -151.19,98.379 -38.96,50.218 -58.46,111.049 -58.56,182.459 l 0.36,102.86 1.46,111.56 -1.5,100.49 1.26,130.82 -75.99,-9.23 -0.04,212.05 75.99,9.23 1.71,409.34 c 0.07,69.97 19.68,134.82 58.85,194.57 39.13,59.73 89.03,104.7 149.63,134.91 33.62,16.93 70.85,27.89 111.68,32.84 l 63.33,7.7 318.75,38.69"
           style="fill:#231f20;fill-opacity:1;fill-rule:nonzero;stroke:none"
           id="path1829" />
        <path
           d="m 6374.86,2337.31 c 0.47,31.47 -10.08,56.61 -31.64,75.43 -21.57,18.79 -47.84,26.32 -78.79,22.56 l -170.98,-20.76 -1.68,-1291.85 173.1,21.02 c 29.56,3.59 55.31,17.76 77.3,42.59 21.96,24.79 32.47,52.84 31.56,84.15 z m 1.61,304.38 c 61.84,-15.36 112.21,-48.16 151.17,-98.4 38.94,-50.25 58.39,-110.38 58.31,-180.35 l -1.13,-1066.86 c -1.32,-71.58 -21.57,-137.23 -60.7,-196.94 -39.17,-59.75 -89.04,-104.718 -149.64,-134.898 -35.07,-17.121 -72.3,-28.062 -111.68,-32.851 l -173.09,-21.012 -208.98,-25.367 1.59,1715.958 211.09,25.63 173.1,21.02 c 37.99,4.61 74.64,2.63 109.96,-5.93"
           style="fill:#231f20;fill-opacity:1;fill-rule:nonzero;stroke:none"
           id="path1831" />
      </g>
      <g
         id="g4"
         transform="translate(-39.47741,281.84891)">
        <path
           d="m 4783.7179,3804.5953 c 1.7311,-29.5182 -40.1744,-21.762 -40.1744,-51.55 0,-866.6829 -1046.6919,-2188.9308 -2061.28,-2444.4102 v -36.8471 c 1347.8311,124.0977 2890.2166,1524.2439 2924.1636,2851.7743 L 4783.628,3804.5728 Z"
           style="fill:url(#SVGID_right_);stroke-width:22.4815"
           id="path6" />
        <path
           d="m 4376.084,3697.9657 c 1.7086,-29.5181 2.6978,-59.1262 2.6978,-88.9591 0,-866.6832 -690.1579,-2034.5057 -1704.7016,-2289.9625 v -36.8472 c 1327.3958,62.7233 2378.7636,1416.8721 2378.7636,2454.9765 0,53.3935 -2.8776,106.3148 -8.3406,158.6292 l -668.3739,-197.7919 z"
           style="fill:#e96d1f;stroke-width:22.4815"
           id="path7" />
        <path
           d="m 5050.9326,3908.1449 -171.241,-61.1945 c 0.9217,-21.6272 1.4838,-50.6732 1.4838,-72.5027 0,-926.6635 -837.9067,-2207.7703 -1962.0022,-2408.215 -72.9526,-24.4599 -169.4655,-46.694 -245.7674,-65.8932 v -36.8247 c 1467.0053,124.997 2497.6905,1615.6535 2377.6392,2644.7201 z"
           style="fill:#d9541e;stroke-width:22.4815"
           id="path8" />
        <path
           d="m 2495.2372,3804.6178 c -1.7311,-29.5182 40.1743,-21.7621 40.1743,-51.55 0,-866.6829 1046.6922,-2188.9308 2061.2804,-2444.4102 v -36.8471 c -1347.8311,124.0977 -2890.217,1524.2439 -2924.164,2851.7743 l 822.7992,-318.9895 z"
           style="fill:url(#SVGID_left_);stroke-width:22.4815"
           id="path9" />
        <path
           d="m 2902.8711,3697.9882 c -1.7086,-29.5182 -2.6978,-59.1262 -2.6978,-88.9591 0,-866.6833 690.1583,-2034.5057 1704.7019,-2289.9626 v -36.8471 c -1327.3955,62.7233 -2378.7637,1416.8721 -2378.7637,2454.9765 0,53.3935 2.8777,106.3148 8.3406,158.6292 l 668.374,-197.7919 z"
           style="fill:#a0ce67;stroke-width:22.4815"
           id="path10" />
        <path
           d="m 2228.0224,3908.1674 171.2414,-61.1945 c -0.9218,-21.6272 -1.4838,-50.6733 -1.4838,-72.5028 0,-926.6634 837.9067,-2207.7702 1962.0023,-2408.215 72.9523,-24.4598 169.4652,-46.694 245.7673,-65.8931 v -36.8247 C 3138.5443,1388.5343 2107.859,2879.1908 2227.91,3908.2573 Z"
           style="fill:#439639;stroke-width:22.4815"
           id="path11" />
      </g>
      <text
         xml:space="preserve"
         transform="matrix(11.493179,0,0,-11.493179,2063.0141,8611.993)"
         id="text4"
         style="font-size:144px;line-height:1.25;font-family:'Air Americana';-inkscape-font-specification:'Air Americana';white-space:pre;shape-inside:url(#rect4);display:inline"><tspan
           x="72.818359"
           y="729.90039"
           id="tspan5"><tspan
             style="font-family:'Bebas Neue';-inkscape-font-specification:'Bebas Neue'"
             id="tspan3">JID</tspan></tspan></text>
      <text
         xml:space="preserve"
         transform="matrix(11.237766,0,0,-11.237766,1482.2396,12787.8)"
         id="text4-3"
         style="font-size:144px;line-height:1.25;font-family:'Air Americana';-inkscape-font-specification:'Air Americana';white-space:pre;shape-inside:url(#rect4-0);display:inline"><tspan
           x="72.818359"
           y="729.90039"
           id="tspan7"><tspan
             style="font-family:'Bebas Neue';-inkscape-font-specification:'Bebas Neue'"
             id="tspan6">ODOO</tspan></tspan></text>
    </g>
  </g>
</svg>
