<svg width="2026" height="511" xmlns="http://www.w3.org/2000/svg" xmlns:xlink="http://www.w3.org/1999/xlink" xml:space="preserve" overflow="hidden"><defs><linearGradient x1="2200" y1="945.371" x2="2200" y2="1473.37" gradientUnits="userSpaceOnUse" spreadMethod="reflect" id="fill0"><stop offset="0" stop-color="#F0F8FD"/><stop offset="0.74" stop-color="#74C4E9"/><stop offset="0.83" stop-color="#74C4E9"/><stop offset="1" stop-color="#A2D8F0"/></linearGradient></defs><g transform="translate(-1187 -982)"><path d="M1778.01 1202.4C1768.84 1202.4 1760.68 1204.76 1753.52 1209.49 1746.36 1214.21 1740.95 1221.12 1737.3 1230.22 1733.65 1239.31 1731.82 1249.23 1731.82 1259.97 1731.82 1275.73 1735.76 1287.8 1743.64 1296.18 1751.51 1304.55 1761.4 1308.74 1773.28 1308.74 1782.31 1308.74 1790.4 1306.34 1797.56 1301.55 1804.72 1296.75 1810.13 1289.66 1813.78 1280.28 1817.43 1270.9 1819.26 1260.83 1819.26 1250.09 1819.26 1241.21 1817.83 1233.19 1814.96 1226.03 1812.1 1218.87 1807.41 1213.14 1800.89 1208.84 1794.37 1204.54 1786.75 1202.4 1778.01 1202.4ZM2652.37 1200.25C2642.63 1200.25 2631.6 1201.89 2619.28 1205.19 2618.13 1211.63 2617.33 1216.9 2616.9 1220.98 2616.47 1225.06 2616.04 1230.58 2615.61 1237.52 2615.18 1244.47 2614.96 1250.02 2614.96 1254.17 2614.96 1265.92 2616.79 1275.77 2620.44 1283.71 2624.09 1291.66 2629.18 1297.82 2635.7 1302.19 2642.22 1306.56 2649.2 1308.74 2656.65 1308.74 2664.53 1308.74 2671.76 1306.49 2678.35 1301.98 2684.95 1297.46 2690.18 1290.7 2694.04 1281.67 2697.91 1272.65 2699.85 1262.48 2699.85 1251.17 2699.85 1235.84 2695.8 1223.52 2687.71 1214.21 2679.61 1204.9 2667.83 1200.25 2652.37 1200.25ZM1488.37 1200.25C1478.63 1200.25 1467.6 1201.89 1455.28 1205.19 1454.13 1211.63 1453.34 1216.9 1452.9 1220.98 1452.47 1225.06 1452.04 1230.58 1451.61 1237.52 1451.18 1244.47 1450.96 1250.02 1450.96 1254.17 1450.96 1265.92 1452.79 1275.77 1456.44 1283.71 1460.09 1291.66 1465.18 1297.82 1471.7 1302.19 1478.22 1306.56 1485.2 1308.74 1492.65 1308.74 1500.53 1308.74 1507.76 1306.49 1514.36 1301.98 1520.95 1297.46 1526.18 1290.7 1530.04 1281.67 1533.91 1272.65 1535.85 1262.48 1535.85 1251.17 1535.85 1235.84 1531.8 1223.52 1523.71 1214.21 1515.62 1204.9 1503.83 1200.25 1488.37 1200.25ZM2379.55 1195.74C2365.63 1195.74 2353.79 1198.42 2344.03 1203.79 2334.27 1209.16 2326.77 1217.54 2321.53 1228.93 2316.29 1240.32 2313.67 1251.52 2313.67 1262.55 2313.67 1270.86 2315.14 1278.34 2318.08 1285 2321.03 1291.66 2325.55 1296.93 2331.65 1300.79 2337.75 1304.66 2344.53 1306.6 2352 1306.6 2359.89 1306.6 2367.1 1304.38 2373.63 1299.94 2380.17 1295.49 2385.48 1288.98 2389.57 1280.38 2393.66 1271.79 2396.46 1261.59 2397.96 1249.77 2399.47 1237.95 2400.51 1220.8 2401.08 1198.31 2393.48 1196.6 2386.3 1195.74 2379.55 1195.74ZM2801.58 1144.82C2822.94 1145.1 2837.92 1145.25 2846.52 1145.25 2856.55 1145.25 2870.24 1145.1 2887.59 1144.82 2890.31 1155.85 2895.36 1174.9 2902.75 1201.97 2910.13 1229.04 2915.47 1250.23 2918.77 1265.56 2920.63 1274.01 2922.42 1284.75 2924.15 1297.79L2928.65 1280.6C2930.08 1276.02 2931.73 1270.79 2933.59 1264.92 2935.45 1259.04 2937.81 1252.02 2940.67 1243.86L2954.63 1204.76 2977.81 1144.82C2995.7 1145.1 3009.23 1145.25 3018.39 1145.25 3026.4 1145.25 3040.71 1145.1 3061.32 1144.82L3019.89 1238.49 2944.97 1412.3C2940.1 1422.04 2935.44 1429.77 2930.99 1435.5 2926.84 1440.66 2922.32 1445.17 2917.45 1449.04 2912.87 1452.62 2907.92 1455.63 2902.62 1458.06 2895.45 1461.35 2887.57 1463.93 2878.97 1465.79 2869.51 1467.8 2859.91 1468.8 2850.17 1468.8 2845.72 1468.8 2839.85 1468.48 2832.54 1467.84 2825.23 1467.19 2819.32 1466.55 2814.8 1465.9 2810.29 1465.26 2804.3 1464.08 2796.85 1462.36 2792.41 1428.13 2789.4 1406.86 2787.83 1398.55 2796.86 1402.85 2804.85 1405.78 2811.8 1407.36 2818.75 1408.93 2824.74 1409.72 2829.75 1409.72 2835.06 1409.72 2840.04 1409 2844.69 1407.57 2849.35 1406.14 2853.04 1404.38 2855.77 1402.31 2858.49 1400.23 2861.47 1397.04 2864.69 1392.75 2867.92 1388.45 2870.32 1384.76 2871.89 1381.68 2873.47 1378.6 2875.05 1374.2 2876.62 1368.47L2836.2 1246.22ZM2653.43 1139.23C2674.06 1139.23 2693.04 1141.38 2710.37 1145.68 2727.7 1149.97 2741.63 1157.57 2752.16 1168.45 2762.69 1179.34 2770.6 1192.3 2775.9 1207.34 2781.2 1222.38 2783.85 1238.13 2783.85 1254.6 2783.85 1269.64 2781.7 1284.22 2777.41 1298.32 2773.12 1312.43 2766.53 1325.14 2757.66 1336.46 2748.79 1347.77 2738.59 1356.15 2727.07 1361.6 2715.55 1367.04 2702.71 1369.76 2688.54 1369.76 2681.53 1369.76 2674.27 1369.08 2666.75 1367.72 2659.24 1366.36 2652.12 1364.39 2645.4 1361.81 2638.67 1359.23 2633.05 1356.62 2628.54 1353.97 2624.03 1351.32 2618.42 1347.49 2611.69 1342.47L2609.31 1402.42C2608.29 1429.92 2607.79 1450.68 2607.79 1464.72 2591.15 1464.43 2576.88 1464.29 2564.98 1464.29 2554.65 1464.29 2539.74 1464.43 2520.24 1464.72 2522.95 1435.36 2525.24 1406.07 2527.1 1376.85 2530.39 1326.86 2532.64 1284.93 2533.86 1251.06 2535.08 1217.18 2535.69 1183.63 2535.69 1150.4 2564.76 1145.96 2587.54 1142.99 2604.01 1141.49 2620.48 1139.98 2636.96 1139.23 2653.43 1139.23ZM2113.5 1139.23C2123.81 1139.23 2133.88 1140.34 2143.69 1142.56 2153.5 1144.78 2161.7 1147.93 2168.28 1152.02 2174.87 1156.1 2180.39 1161.18 2184.83 1167.27 2189.27 1173.36 2192.2 1179.91 2193.64 1186.93 2195.07 1193.95 2195.78 1201.18 2195.78 1208.63 2195.78 1214.07 2195.2 1225.81 2194.04 1243.86L2190.35 1321.63C2189.62 1336.96 2189.26 1351.14 2189.26 1364.17 2174.81 1363.89 2161.28 1363.74 2148.69 1363.74 2131.66 1363.74 2116.13 1363.89 2102.11 1364.17 2103.41 1351.14 2104.78 1331.77 2106.23 1306.06 2107.67 1280.35 2108.39 1262.27 2108.39 1251.81 2108.39 1235.63 2105.27 1224.35 2099.04 1217.97 2092.8 1211.6 2084.95 1208.41 2075.49 1208.41 2067.17 1208.41 2059.32 1211.13 2051.94 1216.58 2044.56 1222.02 2038.86 1229.93 2034.84 1240.32 2030.83 1250.7 2027.99 1267.78 2026.34 1291.56 2024.69 1315.33 2023.58 1339.54 2023 1364.17 2008.69 1363.89 1994.73 1363.74 1981.13 1363.74 1966.82 1363.74 1951.28 1363.89 1934.53 1364.17 1938.65 1331.66 1941.81 1295.75 1944.02 1256.43 1946.22 1217.11 1947.53 1179.91 1947.96 1144.82 1965.17 1145.1 1980.01 1145.25 1992.49 1145.25 2006.97 1145.25 2020.88 1145.1 2034.22 1144.82L2032.08 1174.04C2036.81 1168.74 2040.89 1164.55 2044.33 1161.47 2047.76 1158.39 2052.02 1155.38 2057.11 1152.44 2062.19 1149.51 2067.6 1147.11 2073.33 1145.25 2079.06 1143.39 2085.32 1141.92 2092.12 1140.84 2098.93 1139.77 2106.05 1139.23 2113.5 1139.23ZM1779.51 1139.23C1797.27 1139.23 1814.35 1141.95 1830.75 1147.4 1847.15 1152.84 1861.01 1160.68 1872.33 1170.92 1883.64 1181.16 1891.98 1193.12 1897.36 1206.8 1902.73 1220.48 1905.41 1235.2 1905.41 1250.95 1905.41 1266.28 1903.01 1280.85 1898.22 1294.67 1893.42 1308.49 1885.29 1321.46 1873.83 1333.56 1862.37 1345.66 1847.8 1354.72 1830.11 1360.74 1812.42 1366.75 1793.69 1369.76 1773.93 1369.76 1755.74 1369.76 1738.26 1367.11 1721.51 1361.81 1704.75 1356.51 1690.75 1348.78 1679.5 1338.61 1668.26 1328.44 1659.81 1316.26 1654.15 1302.08 1648.5 1287.9 1645.67 1273.01 1645.67 1257.4 1645.67 1241.78 1648.42 1226.89 1653.94 1212.71 1659.45 1198.53 1668.19 1185.78 1680.15 1174.47 1692.11 1163.15 1706.9 1154.45 1724.51 1148.36 1742.13 1142.28 1760.46 1139.23 1779.51 1139.23ZM1489.43 1139.23C1510.06 1139.23 1529.04 1141.38 1546.37 1145.68 1563.7 1149.97 1577.63 1157.57 1588.16 1168.45 1598.69 1179.34 1606.6 1192.3 1611.9 1207.34 1617.2 1222.38 1619.85 1238.13 1619.85 1254.6 1619.85 1269.64 1617.7 1284.22 1613.41 1298.32 1609.12 1312.43 1602.53 1325.14 1593.66 1336.46 1584.79 1347.77 1574.59 1356.15 1563.07 1361.6 1551.55 1367.04 1538.71 1369.76 1524.54 1369.76 1517.53 1369.76 1510.27 1369.08 1502.75 1367.72 1495.24 1366.36 1488.12 1364.39 1481.4 1361.81 1474.67 1359.23 1469.05 1356.62 1464.54 1353.97 1460.03 1351.32 1454.42 1347.49 1447.69 1342.47L1445.31 1402.42C1444.29 1429.92 1443.79 1450.68 1443.79 1464.72 1427.15 1464.43 1412.88 1464.29 1400.98 1464.29 1390.65 1464.29 1375.74 1464.43 1356.24 1464.72 1358.95 1435.36 1361.24 1406.07 1363.1 1376.85 1366.39 1326.86 1368.64 1284.93 1369.86 1251.06 1371.08 1217.18 1371.69 1183.63 1371.69 1150.4 1400.76 1145.96 1423.54 1142.99 1440.01 1141.49 1456.48 1139.98 1472.96 1139.23 1489.43 1139.23ZM2406.36 1070.91C2423.96 1071.2 2438.34 1071.34 2449.5 1071.34 2463.95 1071.34 2478.54 1071.2 2493.28 1070.91 2489.14 1113.45 2485.49 1165.37 2482.35 1226.67 2479.2 1287.98 2477.63 1333.81 2477.63 1364.17 2462.3 1363.89 2449.54 1363.74 2439.37 1363.74 2427.91 1363.74 2414.01 1363.89 2397.67 1364.17L2398.9 1336.89C2393.32 1342.33 2388.45 1346.74 2384.3 1350.1 2380.15 1353.47 2374.81 1356.73 2368.3 1359.88 2361.78 1363.03 2354.77 1365.46 2347.25 1367.18 2339.74 1368.9 2331.97 1369.76 2323.95 1369.76 2310.2 1369.76 2297.35 1367.25 2285.4 1362.24 2273.44 1357.23 2263.24 1350.1 2254.79 1340.86 2246.35 1331.62 2240.05 1320.67 2235.9 1307.99 2231.74 1295.32 2229.67 1282.17 2229.67 1268.57 2229.67 1249.23 2233.46 1230.33 2241.06 1211.85 2248.66 1193.37 2258.58 1178.83 2270.84 1168.24 2283.09 1157.64 2296.93 1150.15 2312.33 1145.78 2327.74 1141.42 2344.4 1139.23 2362.32 1139.23 2374.22 1139.23 2388.12 1140.31 2404.03 1142.45 2405.16 1125.41 2405.94 1101.56 2406.36 1070.91Z" fill="url(#fill0)" fill-rule="evenodd"/><text fill="#000000" fill-opacity="0" font-family="Arial,Arial_MSFontService,sans-serif" font-size="397.891" x="1356.24" y="1419.07">pondpy</text></g></svg>