<?xml version="1.0" encoding="UTF-8" standalone="no"?>
<svg
   width="490.00021pt"
   height="490.00021pt"
   version="1.1"
   viewBox="0 0 490.00021 490.00021"
   id="svg4"
   sodipodi:docname="save.svg"
   inkscape:version="1.1.2 (0a00cf5339, 2022-02-04)"
   xmlns:inkscape="http://www.inkscape.org/namespaces/inkscape"
   xmlns:sodipodi="http://sodipodi.sourceforge.net/DTD/sodipodi-0.dtd"
   xmlns="http://www.w3.org/2000/svg"
   xmlns:svg="http://www.w3.org/2000/svg">
  <defs
     id="defs8" />
  <sodipodi:namedview
     id="namedview6"
     pagecolor="#ffffff"
     bordercolor="#666666"
     borderopacity="1.0"
     inkscape:pageshadow="2"
     inkscape:pageopacity="0.0"
     inkscape:pagecheckerboard="0"
     inkscape:document-units="pt"
     showgrid="false"
     fit-margin-top="0"
     fit-margin-left="0"
     fit-margin-right="0"
     fit-margin-bottom="0"
     inkscape:zoom="0.675"
     inkscape:cx="326.66667"
     inkscape:cy="420.74074"
     inkscape:window-width="1864"
     inkscape:window-height="1024"
     inkscape:window-x="56"
     inkscape:window-y="27"
     inkscape:window-maximized="1"
     inkscape:current-layer="svg4" />
  <path
     d="m 474.621,99.871205 -84.492,-84.492 C 380.3048,5.5003046 366.934,-0.03879544 353,2.0455805e-4 H 52.5 C 38.582,0.01583456 25.234,5.5510046 15.395,15.395205 5.5512,25.235005 0.016,38.583205 0,52.500205 V 437.5002 c 0.0156,13.918 5.5508,27.266 15.395,37.105 9.8398,9.8438 23.188,15.379 37.105,15.395 h 385 c 13.918,-0.0156 27.266,-5.5508 37.105,-15.395 9.8438,-9.8398 15.379,-23.188 15.395,-37.105 v -300.5 c 0.0391,-13.934 -5.5,-27.305 -15.379,-37.128995 z m -159.62,-64.871 v 52.5 c 0,4.6406 -1.8438,9.0938 -5.125,12.375 -3.2812,3.281195 -7.7344,5.124995 -12.375,5.124995 h -105 c -4.6406,0 -9.0938,-1.8438 -12.375,-5.124995 -3.2812,-3.2812 -5.125,-7.7344 -5.125,-12.375 v -52.5 z M 122.501,455.0002 v -140 c 0,-4.6406 1.8438,-9.0938 5.125,-12.375 3.2812,-3.2812 7.7344,-5.125 12.375,-5.125 h 210 c 4.6406,0 9.0938,1.8438 12.375,5.125 3.2812,3.2812 5.125,7.7344 5.125,12.375 v 140 z m 332.5,-17.5 c -0.008,4.6406 -1.8516,9.0859 -5.1328,12.367 -3.2812,3.2811 -7.7266,5.125 -12.367,5.1328 h -35 V 315 c 0,-13.926 -5.5312,-27.277 -15.375,-37.125 -9.8477,-9.8438 -23.199,-15.375 -37.125,-15.375 h -210 c -13.926,0 -27.277,5.5312 -37.125,15.375 -9.8438,9.8477 -15.375,23.199 -15.375,37.125 v 140 h -35 c -4.6406,-0.008 -9.0859,-1.8516 -12.367,-5.1328 -3.2811,-3.2812 -5.125,-7.7266 -5.1328,-12.367 V 52.500205 c 0.008,-4.6406 1.8516,-9.0859 5.1328,-12.367 3.2812,-3.2811 7.7266,-5.125 12.367,-5.1328 h 87.5 v 52.5 c 0,13.925995 5.5312,27.276995 15.375,37.124995 9.8477,9.8438 23.199,15.375 37.125,15.375 h 105 c 13.926,0 27.277,-5.5312 37.125,-15.375 9.8438,-9.8477 15.375,-23.199 15.375,-37.124995 v -52.5 c 5.6367,-0.67188 11.277,1.207 15.379,5.1289 l 84.492,84.491995 c 3.2969,3.2734 5.1406,7.7344 5.1289,12.379 z M 227.501,52.500205 h 35 c 6.2539,0 12.031,3.3359 15.156,8.75 3.125,5.4141 3.125,12.086 0,17.5 -3.125,5.414 -8.9023,8.75 -15.156,8.75 h -35 c -6.2539,0 -12.031,-3.3359 -15.156,-8.75 -3.125,-5.4141 -3.125,-12.086 0,-17.5 3.125,-5.414 8.9023,-8.75 15.156,-8.75 z m 105,314.999995 h -175 c -6.2539,0 -12.031,-3.3359 -15.156,-8.75 -3.125,-5.4141 -3.125,-12.086 0,-17.5 3.125,-5.414 8.9023,-8.75 15.156,-8.75 h 175 c 6.2539,0 12.031,3.3359 15.156,8.75 3.125,5.4141 3.125,12.086 0,17.5 -3.125,5.414 -8.9023,8.75 -15.156,8.75 z m 0,52.5 h -175 c -6.2539,0 -12.031,-3.3359 -15.156,-8.75 -3.125,-5.4141 -3.125,-12.086 0,-17.5 3.125,-5.414 8.9023,-8.75 15.156,-8.75 h 175 c 6.2539,0 12.031,3.3359 15.156,8.75 3.125,5.4141 3.125,12.086 0,17.5 -3.125,5.414 -8.9023,8.75 -15.156,8.75 z"
     id="path2" />
</svg>
