<?xml version="1.0" encoding="UTF-8" standalone="no"?>
<svg
   width="492.7518pt"
   height="542.43994pt"
   version="1.1"
   viewBox="0 0 492.7518 542.43994"
   id="svg4"
   sodipodi:docname="start.svg"
   inkscape:version="1.1.2 (0a00cf5339, 2022-02-04)"
   xmlns:inkscape="http://www.inkscape.org/namespaces/inkscape"
   xmlns:sodipodi="http://sodipodi.sourceforge.net/DTD/sodipodi-0.dtd"
   xmlns="http://www.w3.org/2000/svg"
   xmlns:svg="http://www.w3.org/2000/svg">
  <defs
     id="defs8" />
  <sodipodi:namedview
     id="namedview6"
     pagecolor="#ffffff"
     bordercolor="#666666"
     borderopacity="1.0"
     inkscape:pageshadow="2"
     inkscape:pageopacity="0.0"
     inkscape:pagecheckerboard="0"
     inkscape:document-units="pt"
     showgrid="false"
     fit-margin-top="0"
     fit-margin-left="0"
     fit-margin-right="0"
     fit-margin-bottom="0"
     inkscape:zoom="0.675"
     inkscape:cx="328.14815"
     inkscape:cy="454.81481"
     inkscape:window-width="1864"
     inkscape:window-height="1024"
     inkscape:window-x="56"
     inkscape:window-y="27"
     inkscape:window-maximized="1"
     inkscape:current-layer="svg4" />
  <path
     d="M 456.082,207.99658 108.902,9.5965833 c -22.527,-12.879 -50.207,-12.789 -72.648,0.23438 C 13.813,22.853963 0,46.842963 0,72.787963 V 469.58796 c 0.0469,19.293 7.7266,37.789 21.363,51.438 13.637,13.652 32.125,21.348 51.418,21.414 12.68,-0.0312 25.133,-3.3711 36.121,-9.6953 l 347.18,-198.36 c 14.922,-8.5273 26.344,-22.059 32.246,-38.195 5.8984,-16.141 5.8984,-33.852 0,-49.992 -5.9023,-16.137 -17.324,-29.668 -32.246,-38.195 z m -25.953,80.797 -347.29,198.4 c -6.2734,3.5859 -13.984,3.5586 -20.238,-0.0664 -6.2539,-3.6289 -10.102,-10.312 -10.105,-17.539 V 72.788177 c -0.0273,-3.5508 0.89062,-7.0469 2.668,-10.125 1.7734,-3.0742 4.3398,-5.6211 7.4297,-7.375 3.1172,-1.8281 6.6602,-2.8086 10.273,-2.8516 3.5078,0.02344 6.9492,0.96875 9.9727,2.7461 l 347.29,198.399993 c 4.1602,2.3711 7.3477,6.1406 8.9922,10.641 1.6484,4.4961 1.6484,9.4336 0,13.93 -1.6445,4.5 -4.832,8.2695 -8.9922,10.641 z"
     id="path2" />
</svg>
